<?xml version="1.0" encoding="utf-8"?>
<!-- Generator: Adobe Illustrator 25.4.2, SVG Export Plug-In . SVG Version: 6.00 Build 0)  -->
<svg version="1.1" id="Calque_1" xmlns="http://www.w3.org/2000/svg" xmlns:xlink="http://www.w3.org/1999/xlink" x="0px" y="0px"
	 viewBox="0 0 200 200" style="enable-background:new 0 0 200 200;" xml:space="preserve">
<style type="text/css">
	.st0{fill-rule:evenodd;clip-rule:evenodd;}
	.st1{fill-rule:evenodd;clip-rule:evenodd;fill:#FFFFFF;}
</style>
<g>
	<path class="st0" d="M197.8,99.7c0,54.1-44,98-98.2,98s-98.2-43.9-98.2-98s44-98,98.2-98S197.8,45.6,197.8,99.7L197.8,99.7z
		 M32,119.3l7.2-1.3l7.7,24.2l-6.6,1.2l-1.4-4.9l-6.4,1.1l-1.4,5.4l-7.1,1.2L32,119.3z M28.2,112.5l6.4-1.1l3,4.9l-5.1,0.9
		L28.2,112.5z M35.3,129.2l-1.2,4.3l3.3-0.6l-1.2-4.1l-0.4-1.9C35.6,127.8,35.5,128.6,35.3,129.2L35.3,129.2z M56.6,140.5l0.3-25.6
		l6.2-1.1l6.4,10.7c0.3,0.5,0.6,1,0.8,1.6c0-0.6,0-1.2,0-1.6l0.1-11.9l6.6-1.2L76.8,137l-6.2,1.1l-6.4-10.6c-0.3-0.5-0.6-1-0.9-1.6
		c0,0.6,0,1.2,0,1.6l-0.1,11.9L56.6,140.5L56.6,140.5z M87.2,109.6l7.2-1.3l7.7,24.2l-6.6,1.2l-1.4-4.9l-6.4,1.1l-1.4,5.4l-7.1,1.2
		L87.2,109.6z M90.5,119.5l-1.2,4.3l3.3-0.6l-1.2-4.1l-0.4-1.9C90.8,118.1,90.6,118.9,90.5,119.5L90.5,119.5z M104.3,132.1l0.3-25.6
		l6.2-1.1l6.4,10.7c0.3,0.5,0.6,1,0.8,1.6c0-0.6,0-1.2,0-1.6l0.1-11.9l6.6-1.2l-0.3,25.6l-6.2,1.1l-6.4-10.6c-0.3-0.5-0.6-1-0.9-1.6
		c0,0.6,0,1.2,0,1.6l-0.1,11.9L104.3,132.1L104.3,132.1z M134.3,107.4l-7,1.2l0.1-6.1l20.5-3.6l-0.1,6.1l-7,1.2l-0.2,19.5l-6.6,1.2
		L134.3,107.4z M150.7,98.4l15.4-2.7l-0.1,6.1l-8.8,1.5l0,3.6l7-1.2l-0.1,6.1l-7,1.2l0,3.8l9.2-1.6l-0.1,6.1l-15.9,2.8L150.7,98.4z
		 M177.5,113.2c0.7-0.1,1.2-0.4,1.6-0.8c0.4-0.4,0.5-0.8,0.4-1.3c-0.1-0.3-0.3-0.6-0.7-0.8c-0.4-0.2-1.1-0.5-2.1-0.8
		c-1.3-0.4-2.4-0.9-3.4-1.3c-0.9-0.4-1.8-1.1-2.6-2c-0.8-0.9-1.3-2-1.6-3.4c-0.3-1.5-0.1-2.9,0.5-4.2c0.6-1.3,1.5-2.5,2.8-3.4
		c1.3-0.9,2.7-1.5,4.4-1.8c2.4-0.4,4.3-0.4,5.8,0.1c1.4,0.5,2.5,1,3.3,1.6l-2.7,5.6c-0.7-0.4-1.5-0.7-2.3-1
		c-0.9-0.3-1.9-0.3-3.1-0.1c-0.7,0.1-1.2,0.4-1.6,0.8c-0.4,0.4-0.6,0.8-0.5,1.3c0.1,0.4,0.3,0.6,0.7,0.9c0.4,0.2,1.1,0.5,2.1,0.8
		c1.3,0.4,2.5,0.9,3.4,1.3c0.9,0.4,1.8,1.1,2.6,1.9c0.8,0.9,1.3,2,1.5,3.4c0.3,1.5,0.1,2.9-0.5,4.2c-0.6,1.3-1.5,2.5-2.8,3.4
		c-1.3,0.9-2.7,1.6-4.4,1.9c-2.6,0.5-4.8,0.4-6.4-0.3c-1.7-0.6-2.8-1.3-3.5-1.9l3-5.5C173.5,113.1,175.5,113.6,177.5,113.2
		L177.5,113.2z M30.3,81.2l7-1.2l4,13.7c0.1,0.5,0.3,1,0.4,1.6l0.5-2l4.3-15L54,77l-8.7,27l-6.8,1.2L30.3,81.2L30.3,81.2z M55,91.3
		c-0.4-2.5-0.2-5,0.7-7.5c0.9-2.5,2.3-4.5,4.2-6.3c1.9-1.7,4.1-2.8,6.5-3.2c2.2-0.4,4.3-0.3,6.1,0.3c1.9,0.6,3.4,1.7,4.7,3.1
		c1.2,1.5,2.1,3.3,2.4,5.4c0.4,2.5,0.2,5.1-0.7,7.5c-0.9,2.5-2.3,4.6-4.2,6.4s-4.1,2.8-6.5,3.3c-2.2,0.4-4.3,0.3-6.1-0.4
		c-1.9-0.6-3.4-1.7-4.7-3.2C56.2,95.3,55.4,93.5,55,91.3L55,91.3z M61.7,89.8c0.3,1.6,0.9,2.7,1.9,3.6c1,0.8,2.2,1.1,3.6,0.9
		c1.2-0.2,2.3-0.8,3.3-1.7c1-1,1.7-2.1,2.1-3.5c0.4-1.4,0.5-2.7,0.3-4.1c-0.3-1.5-0.9-2.7-1.9-3.4c-1-0.8-2.2-1-3.6-0.8
		c-1.2,0.2-2.3,0.8-3.3,1.7c-1,0.9-1.7,2.1-2.1,3.4C61.6,87.1,61.5,88.4,61.7,89.8L61.7,89.8z M79.8,72.5l7.1-1.3l2.7,5.8
		c0.3,0.7,0.6,1.3,0.9,2l0.1,0.2l0.1-0.2l0.9-2.4l2.6-6.6l8-1.4l-8.2,16.8l-0.1,10.1l-6.6,1.2l0.1-10.5L79.8,72.5L79.8,72.5z
		 M107.3,67.7l7.2-1.3l7.7,24.2l-6.6,1.2l-1.4-4.9l-6.4,1.1l-1.4,5.4l-7.1,1.2L107.3,67.7z M110.5,77.6l-1.2,4.3l3.3-0.6l-1.2-4.1
		l-0.4-1.9C110.9,76.2,110.7,76.9,110.5,77.6L110.5,77.6z M123.3,79.4c-0.5-2.7-0.3-5.2,0.6-7.7c0.9-2.5,2.3-4.5,4.3-6.2
		c2-1.7,4.3-2.7,6.9-3.2c1.9-0.3,3.5-0.4,5-0.1c1.5,0.2,2.6,0.6,3.4,1c0.8,0.4,1.4,0.7,1.7,1l-2.9,5.4c-0.5-0.4-1.3-0.7-2.3-1
		c-1-0.3-2.2-0.3-3.6-0.1c-1.5,0.3-2.7,0.8-3.8,1.7c-1,0.9-1.8,2-2.2,3.3c-0.4,1.3-0.5,2.7-0.3,4.3c0.3,1.6,0.9,2.8,2,3.6
		c1,0.8,2.3,1,3.8,0.8c0.9-0.2,1.7-0.5,2.5-1c0.7-0.5,1.3-0.9,1.8-1.4l0-1.2l-3.3,0.6l0.1-6l9.2-1.6l-0.2,14.8l-5.7,1l0-1
		c-0.4,0.4-1,0.8-1.7,1.2c-0.8,0.5-1.8,0.8-3,1c-2,0.3-3.8,0.2-5.6-0.5c-1.8-0.7-3.2-1.8-4.4-3.3C124.5,83.3,123.7,81.5,123.3,79.4
		L123.3,79.4z M150.8,60l15.4-2.7l-0.1,6.1l-8.8,1.5l0,3.6l7-1.2l-0.1,6.1l-7,1.2l0,3.8l9.2-1.6l-0.1,6.1l-15.9,2.8L150.8,60z
		 M76.1,34.7l6.6-1.2L82.5,53l9.4-1.7l-0.1,6.1l-16,2.8L76.1,34.7z M95,31.4l15.4-2.7l-0.1,6.1l-8.8,1.5l0,3.6l7-1.2l-0.1,6.1
		l-7,1.2l0,3.8l9.2-1.6l-0.1,6.1l-15.9,2.8L95,31.4z M44.1,161c0-0.2-0.1-0.5-0.1-0.9l0-7.2l2.3-0.4l0,6.9c0,0.2,0,0.4,0,0.5
		c0.1,0.3,0.3,0.4,0.6,0.3c0.1,0,0.3-0.1,0.3-0.1l0,2.1c0,0-0.3,0.1-0.6,0.2C45.4,162.7,44.4,162.4,44.1,161L44.1,161z M48.4,159.1
		c-0.4-2.4,0.9-4.5,3.2-5c2-0.4,3.2,0.6,3.5,2.2c0.1,0.6,0,1.4,0,1.4l-4.4,0.8c0.1,0.8,0.7,1.1,1.6,1c1-0.2,1.9-1.1,1.9-1.1l0.9,1.6
		c0,0-1.1,1.1-2.6,1.4C50.1,161.9,48.7,160.7,48.4,159.1L48.4,159.1z M50.8,157.1l2-0.4c0,0,0-0.2,0-0.2c-0.1-0.4-0.4-0.7-0.9-0.6
		C51.2,156,50.9,156.6,50.8,157.1L50.8,157.1z M58.1,160.3l-2.3-6.7l2.3-0.4l1,3.6c0.1,0.2,0.3,1.2,0.3,1.2l0,0c0,0,0.1-0.8,0.3-1.3
		l1.1-4l2.5-0.5l-2.4,7.6L58.1,160.3L58.1,160.3z M64,156.1c-0.5-2.4,1.4-4.5,3.5-4.9c2.1-0.4,3.8,0.6,4.2,2.4
		c0.5,2.4-1.4,4.5-3.5,4.9C66,158.9,64.3,158,64,156.1L64,156.1z M66.3,155.6c0.2,0.8,0.8,1.2,1.5,1c0.9-0.2,1.8-1.2,1.5-2.4
		c-0.2-0.8-0.8-1.2-1.5-1.1C66.9,153.3,66,154.3,66.3,155.6L66.3,155.6z M73.1,158.2c0,0,0.3,0.2,0.7,0.1c0.4-0.1,0.9-0.3,1.1-0.9
		L75,157l-2.9-6.5l2.4-0.5l1.2,3.3c0.1,0.4,0.3,1,0.3,1l0,0c0,0,0.1-0.6,0.2-1.1l0.9-3.8l2.6-0.5l-2.9,8.5c-0.6,1.7-1.7,2.5-2.6,2.6
		c-1,0.2-1.9-0.2-1.9-0.2L73.1,158.2L73.1,158.2z M80.4,154.4c-0.4-2.1,2.2-3.2,3.9-3.5l0.1,0c0-0.1,0-0.2,0-0.3
		c-0.1-0.5-0.4-0.6-1-0.5c-0.9,0.2-1.9,1-1.9,1l-0.8-1.7c0,0,1.3-1,2.8-1.3c1.2-0.2,2.8-0.1,3.1,1.7c0,0.2,0.1,0.4,0.1,0.7l0,4.4
		l-2.1,0.4l0-0.4c0-0.2,0-0.5,0-0.5l0,0c0,0-0.6,1.1-1.9,1.4C81.8,156,80.7,155.6,80.4,154.4L80.4,154.4z M82.7,153.5
		c0,0.3,0.3,0.4,0.6,0.3c0.6-0.1,1.1-0.9,1.1-1.5l0-0.2l-0.2,0C83.8,152.4,82.5,152.7,82.7,153.5L82.7,153.5z M89.5,154.9
		c0,0,0.8,0.3,2,0.1c0.8-0.2,1.6-0.6,1.6-1.7l0-0.2c0-0.1,0-0.3,0-0.3l0,0c-0.4,0.6-0.8,0.9-1.5,1c-1.8,0.3-2.9-0.8-3.2-2.4
		c-0.4-1.9,0.6-4.2,2.9-4.7c0.6-0.1,1.5-0.1,2,0.4l0,0c0,0,0-0.1,0-0.2l0-0.4l2.2-0.4l0,6.7c0,2.6-1.8,3.8-3.5,4.1
		c-1.9,0.4-3-0.2-3-0.2L89.5,154.9L89.5,154.9z M90.7,150.8c0.1,0.7,0.5,1.1,1.3,1c1-0.2,1.4-1.4,1.2-2.3c-0.2-0.8-0.7-0.9-1.3-0.8
		C90.9,148.8,90.5,149.8,90.7,150.8L90.7,150.8z M97.1,150c-0.4-2.4,0.9-4.5,3.2-5c2-0.4,3.2,0.6,3.5,2.2c0.1,0.6,0,1.4,0,1.4
		l-4.4,0.8c0.1,0.8,0.7,1.1,1.6,1c1-0.2,1.9-1.1,1.9-1.1l0.9,1.6c0,0-1.1,1.1-2.6,1.4C98.8,152.8,97.4,151.7,97.1,150L97.1,150z
		 M99.4,148.1l2-0.4c0,0,0-0.2,0-0.2c-0.1-0.4-0.4-0.7-0.9-0.6C99.9,146.9,99.6,147.5,99.4,148.1L99.4,148.1z M104.9,149.9
		c-0.4-2.1,2.2-3.2,3.9-3.5l0.1,0c0-0.1,0-0.2,0-0.3c-0.1-0.5-0.4-0.6-1-0.5c-0.9,0.2-1.9,1-1.9,1l-0.8-1.7c0,0,1.3-1,2.8-1.3
		c1.2-0.2,2.8-0.1,3.2,1.7c0,0.2,0.1,0.4,0.1,0.7l0,4.4l-2.1,0.4l0-0.4c0-0.2,0-0.5,0-0.5l0,0c0,0-0.6,1.1-1.9,1.4
		C106.2,151.5,105.1,151,104.9,149.9L104.9,149.9z M107.1,149c0,0.3,0.3,0.4,0.6,0.3c0.6-0.1,1.1-0.9,1.1-1.5l0-0.2l-0.2,0
		C108.2,147.8,107,148.2,107.1,149L107.1,149z M113.2,150l0-7.2l2.2-0.4l0,0.4c0,0.4,0,0.7,0,0.7l0,0c0.3-0.7,1.1-1.4,2.1-1.6
		c1.2-0.2,2.3,0.1,2.5,1.6c0,0.2,0.1,0.5,0,0.8l0,4.5l-2.3,0.4l0-4.1c0-0.2,0-0.3,0-0.4c-0.1-0.4-0.3-0.6-0.7-0.5
		c-0.9,0.2-1.5,1.2-1.5,2.3l0,3.2L113.2,150L113.2,150z M121.6,146.7c-0.4-2.1,2.2-3.2,3.9-3.5l0.1,0c0-0.1,0-0.2,0-0.3
		c-0.1-0.5-0.4-0.6-1-0.5c-0.9,0.2-1.9,1-1.9,1l-0.8-1.7c0,0,1.3-1,2.8-1.3c1.2-0.2,2.8-0.1,3.1,1.7c0,0.2,0.1,0.4,0.1,0.7l0,4.4
		l-2.1,0.4l0-0.4c0-0.2,0-0.5,0-0.5l0,0c0,0-0.6,1.1-1.9,1.4C122.9,148.3,121.8,147.9,121.6,146.7L121.6,146.7z M123.8,145.9
		c0,0.3,0.3,0.4,0.6,0.3c0.6-0.1,1.1-0.9,1.1-1.5l0-0.2l-0.2,0C124.9,144.7,123.7,145.1,123.8,145.9L123.8,145.9z M129.8,146.9
		l0-7.2l2.2-0.4l0,0.4c0,0.4,0,0.7,0,0.7l0,0c0.3-0.7,1.1-1.4,2.1-1.6c1.2-0.2,2.3,0.1,2.5,1.6c0,0.2,0,0.5,0,0.8l0,4.5l-2.3,0.4
		l0-4.1c0-0.2,0-0.3,0-0.4c-0.1-0.4-0.3-0.6-0.7-0.5c-0.9,0.2-1.5,1.2-1.5,2.3l0,3.2L129.8,146.9L129.8,146.9z M139.1,142.9
		c0-0.2,0-0.4,0-0.5l0-2.4l-0.9,0.2l0-1.9l1-0.2l0-2.1l2.2-0.4l0,2.1l1.5-0.3l0,1.9l-1.5,0.3l0,2c0,0.1,0,0.3,0,0.4
		c0.1,0.6,0.6,0.6,1.1,0.5c0.2,0,0.4-0.1,0.4-0.1l0,2.1c0,0-0.3,0.1-0.6,0.2C140.7,144.9,139.4,144.5,139.1,142.9L139.1,142.9z
		 M144.2,141.2c-0.4-2.4,0.9-4.5,3.2-5c2-0.4,3.2,0.6,3.5,2.2c0.1,0.6,0,1.4,0,1.4l-4.4,0.8c0.1,0.8,0.7,1.1,1.6,1
		c1-0.2,1.9-1.1,1.9-1.1l0.9,1.6c0,0-1.1,1.1-2.6,1.4C145.9,144.1,144.5,142.9,144.2,141.2L144.2,141.2z M146.5,139.3l2-0.4
		c0,0,0-0.2,0-0.2c-0.1-0.4-0.4-0.7-0.9-0.6C147,138.2,146.6,138.7,146.5,139.3L146.5,139.3z M151.9,141.9l0.9-1.7
		c0,0,0.8,0.5,1.9,0.3c0.4-0.1,0.7-0.2,0.7-0.5c-0.1-0.6-2.9-0.2-3.3-2.3c-0.3-1.3,1-2.5,2.5-2.8c1.7-0.3,2.8,0.3,2.8,0.3l-0.7,1.8
		c0,0-0.7-0.4-1.7-0.2c-0.3,0.1-0.7,0.2-0.7,0.5c0.1,0.5,2.9,0.2,3.3,2.3c0.3,1.3-0.8,2.4-2.5,2.8
		C153.3,142.7,151.9,141.9,151.9,141.9L151.9,141.9z M159,141.4l0-2.3l2.2-0.4l0,2.3L159,141.4z M163.6,140.6l0-5.2l-0.8,0.2l0-1.9
		l0.8-0.2l0-0.3c0-2.3,2-3,3-3.2c0.5-0.1,0.9-0.1,0.9-0.1l0,2c0,0-0.1,0-0.4,0c-0.5,0.1-1.2,0.3-1.2,0.9l0,0.2l1.3-0.2l0,1.9
		L166,135l0,5.2L163.6,140.6L163.6,140.6z M168.7,139.6l0-7.2l2.2-0.4l0,1.2c0,0.2,0,0.5,0,0.5l0,0c0.3-1,1.1-2,2.1-2.2
		c0.2,0,0.4,0,0.4,0l0,2.4c0,0-0.2,0-0.5,0c-0.7,0.1-1.9,0.9-1.9,2.9l0,2.4L168.7,139.6L168.7,139.6z"/>
	<g>
		<path class="st1" d="M31.9,119.3l7.2-1.3l7.7,24.2l-6.6,1.2l-1.4-4.9l-6.4,1.1l-1.4,5.4l-7.1,1.2L31.9,119.3z M28.1,112.5l6.4-1.1
			l3,4.9l-5.1,0.9L28.1,112.5z M35.2,129.2l-1.2,4.3l3.3-0.6l-1.2-4.1l-0.4-1.9C35.6,127.8,35.4,128.6,35.2,129.2L35.2,129.2z
			 M56.5,140.5l0.3-25.6l6.2-1.1l6.4,10.7c0.3,0.5,0.6,1,0.8,1.6c0-0.6,0-1.2,0-1.6l0.1-11.9l6.6-1.2l-0.3,25.6l-6.2,1.1l-6.4-10.6
			c-0.3-0.5-0.6-1-0.9-1.6c0,0.6,0,1.2,0,1.6l-0.1,11.9L56.5,140.5L56.5,140.5z M87.1,109.6l7.2-1.3l7.7,24.2l-6.6,1.2l-1.4-4.9
			l-6.4,1.1l-1.4,5.4l-7.1,1.2L87.1,109.6z M90.4,119.5l-1.2,4.3l3.3-0.6l-1.2-4.1l-0.4-1.9C90.7,118.1,90.6,118.9,90.4,119.5
			L90.4,119.5z M104.3,132.1l0.3-25.6l6.2-1.1l6.4,10.7c0.3,0.5,0.6,1,0.8,1.6c0-0.6,0-1.2,0-1.6l0.1-11.9l6.6-1.2l-0.3,25.6
			l-6.2,1.1l-6.4-10.6c-0.3-0.5-0.6-1-0.9-1.6c0,0.6,0,1.2,0,1.6l-0.1,11.9L104.3,132.1L104.3,132.1z M134.3,107.3l-7,1.2l0.1-6.1
			l20.5-3.6l-0.1,6.1l-7,1.2l-0.2,19.5l-6.6,1.2L134.3,107.3z M150.6,98.4l15.4-2.7l-0.1,6.1l-8.8,1.5l0,3.6l7-1.2l-0.1,6.1l-7,1.2
			l0,3.8l9.2-1.6l-0.1,6.1l-15.9,2.8L150.6,98.4z M177.4,113.2c0.7-0.1,1.2-0.4,1.6-0.8c0.4-0.4,0.5-0.8,0.4-1.3
			c-0.1-0.3-0.3-0.6-0.7-0.8c-0.4-0.2-1.1-0.5-2.1-0.8c-1.3-0.4-2.4-0.9-3.4-1.3c-0.9-0.4-1.8-1.1-2.6-2c-0.8-0.9-1.3-2-1.6-3.4
			c-0.3-1.5-0.1-2.9,0.5-4.2c0.6-1.3,1.5-2.5,2.8-3.4c1.3-0.9,2.7-1.5,4.4-1.8c2.4-0.4,4.3-0.4,5.8,0.1c1.4,0.5,2.5,1,3.3,1.6
			l-2.7,5.6c-0.7-0.4-1.5-0.7-2.3-1c-0.9-0.3-1.9-0.3-3.1-0.1c-0.7,0.1-1.2,0.4-1.6,0.8c-0.4,0.4-0.6,0.8-0.5,1.3
			c0.1,0.4,0.3,0.6,0.7,0.9c0.4,0.2,1.1,0.5,2.1,0.8c1.3,0.4,2.5,0.9,3.4,1.3c0.9,0.4,1.8,1.1,2.6,1.9c0.8,0.9,1.3,2,1.5,3.4
			c0.3,1.5,0.1,2.9-0.5,4.2c-0.6,1.3-1.5,2.5-2.8,3.4c-1.3,0.9-2.7,1.6-4.4,1.9c-2.6,0.5-4.8,0.4-6.4-0.3c-1.7-0.6-2.8-1.3-3.5-1.9
			l3-5.5C173.4,113.1,175.4,113.5,177.4,113.2L177.4,113.2z M30.2,81.1l7-1.2l4,13.7c0.1,0.5,0.3,1,0.4,1.6l0.5-2l4.3-15l7.5-1.3
			l-8.7,27l-6.8,1.2L30.2,81.1L30.2,81.1z M54.9,91.3c-0.4-2.5-0.2-5,0.7-7.5c0.9-2.5,2.3-4.5,4.2-6.3c1.9-1.7,4.1-2.8,6.5-3.2
			c2.2-0.4,4.3-0.3,6.1,0.3c1.9,0.6,3.4,1.7,4.7,3.1c1.2,1.5,2.1,3.3,2.4,5.4c0.4,2.5,0.2,5.1-0.7,7.5c-0.9,2.5-2.3,4.6-4.2,6.4
			c-1.9,1.7-4.1,2.8-6.5,3.3c-2.2,0.4-4.3,0.3-6.1-0.4c-1.9-0.6-3.4-1.7-4.7-3.2C56.1,95.3,55.3,93.4,54.9,91.3L54.9,91.3z
			 M61.6,89.8c0.3,1.6,0.9,2.7,1.9,3.6c1,0.8,2.2,1.1,3.6,0.9c1.2-0.2,2.3-0.8,3.3-1.7c1-1,1.7-2.1,2.1-3.5c0.4-1.4,0.5-2.7,0.3-4.1
			c-0.3-1.5-0.9-2.7-1.9-3.4c-1-0.8-2.2-1-3.6-0.8c-1.2,0.2-2.3,0.8-3.3,1.7c-1,0.9-1.7,2.1-2.1,3.4C61.5,87,61.4,88.4,61.6,89.8
			L61.6,89.8z M79.7,72.4l7.1-1.3l2.7,5.8c0.3,0.7,0.6,1.3,0.9,2l0.1,0.2l0.1-0.2l0.9-2.4l2.6-6.6l8-1.4l-8.2,16.8l-0.1,10.1
			l-6.6,1.2l0.1-10.5L79.7,72.4L79.7,72.4z M107.2,67.6l7.2-1.3l7.7,24.2l-6.6,1.2l-1.4-4.9l-6.4,1.1l-1.4,5.4l-7.1,1.2L107.2,67.6z
			 M110.5,77.5l-1.2,4.3l3.3-0.6l-1.2-4.1l-0.4-1.9C110.8,76.1,110.6,76.9,110.5,77.5L110.5,77.5z M123.2,79.4
			c-0.5-2.7-0.3-5.2,0.6-7.7c0.9-2.5,2.3-4.5,4.3-6.2c2-1.7,4.3-2.7,6.9-3.2c1.9-0.3,3.5-0.4,5-0.1c1.5,0.2,2.6,0.6,3.4,1
			c0.8,0.4,1.4,0.7,1.7,1l-2.9,5.4c-0.5-0.4-1.3-0.7-2.3-1c-1-0.3-2.2-0.3-3.6-0.1c-1.5,0.3-2.7,0.8-3.8,1.7c-1,0.9-1.8,2-2.2,3.3
			c-0.4,1.3-0.5,2.7-0.3,4.3c0.3,1.6,0.9,2.8,2,3.6c1,0.8,2.3,1,3.8,0.8c0.9-0.2,1.7-0.5,2.5-1c0.7-0.5,1.3-0.9,1.8-1.4l0-1.2
			l-3.3,0.6l0.1-6l9.2-1.6L146,86.3l-5.7,1l0-1c-0.4,0.4-1,0.8-1.7,1.2c-0.8,0.5-1.8,0.8-3,1c-2,0.3-3.8,0.2-5.6-0.5
			c-1.8-0.7-3.2-1.8-4.4-3.3C124.4,83.2,123.6,81.5,123.2,79.4L123.2,79.4z M150.7,60l15.4-2.7l-0.1,6.1l-8.8,1.5l0,3.6l7-1.2
			l-0.1,6.1l-7,1.2l0,3.8l9.2-1.6l-0.1,6.1l-15.9,2.8L150.7,60z M76,34.6l6.6-1.2L82.5,53l9.4-1.7l-0.1,6.1l-16,2.8L76,34.6z
			 M94.9,31.3l15.4-2.7l-0.1,6.1l-8.8,1.5l0,3.6l7-1.2l-0.1,6.1l-7,1.2l0,3.8l9.2-1.6l-0.1,6.1l-15.9,2.8L94.9,31.3z M44,160.9
			c0-0.2-0.1-0.5-0.1-0.9l0-7.2l2.3-0.4l0,6.9c0,0.2,0,0.4,0,0.5c0.1,0.3,0.3,0.4,0.6,0.3c0.1,0,0.3-0.1,0.3-0.1l0,2.1
			c0,0-0.3,0.1-0.6,0.2C45.3,162.7,44.3,162.4,44,160.9L44,160.9z M48.3,159.1c-0.4-2.4,0.9-4.5,3.2-5c2-0.4,3.2,0.6,3.5,2.2
			c0.1,0.6,0,1.4,0,1.4l-4.4,0.8c0.1,0.8,0.7,1.1,1.6,1c1-0.2,1.9-1.1,1.9-1.1L55,160c0,0-1.1,1.1-2.6,1.4
			C50.1,161.9,48.6,160.7,48.3,159.1L48.3,159.1z M50.7,157.1l2-0.4c0,0,0-0.2,0-0.2c-0.1-0.4-0.4-0.7-0.9-0.6
			C51.1,156,50.8,156.5,50.7,157.1L50.7,157.1z M58.1,160.2l-2.3-6.7l2.3-0.4l1,3.6c0.1,0.2,0.3,1.2,0.3,1.2l0,0
			c0,0,0.1-0.8,0.3-1.3l1.1-4l2.5-0.5l-2.4,7.6L58.1,160.2L58.1,160.2z M63.9,156.1c-0.5-2.4,1.4-4.5,3.5-4.9
			c2.1-0.4,3.8,0.6,4.2,2.4c0.5,2.4-1.4,4.5-3.5,4.9C66,158.9,64.2,158,63.9,156.1L63.9,156.1z M66.2,155.5c0.2,0.8,0.8,1.2,1.5,1
			c0.9-0.2,1.8-1.2,1.5-2.4c-0.2-0.8-0.8-1.2-1.5-1.1C66.8,153.3,66,154.3,66.2,155.5L66.2,155.5z M73,158.1c0,0,0.3,0.2,0.7,0.1
			c0.4-0.1,0.9-0.3,1.1-0.9l0.1-0.4l-2.9-6.5l2.4-0.5l1.2,3.3c0.1,0.4,0.3,1,0.3,1l0,0c0,0,0.1-0.6,0.2-1.1l0.9-3.8l2.6-0.5
			l-2.9,8.5c-0.6,1.7-1.7,2.5-2.6,2.6c-1,0.2-1.9-0.2-1.9-0.2L73,158.1L73,158.1z M80.4,154.4c-0.4-2.1,2.2-3.2,3.9-3.5l0.1,0
			c0-0.1,0-0.2,0-0.3c-0.1-0.5-0.4-0.6-1-0.5c-0.9,0.2-1.9,1-1.9,1l-0.8-1.7c0,0,1.3-1,2.8-1.3c1.2-0.2,2.8-0.1,3.1,1.7
			c0,0.2,0.1,0.4,0.1,0.7l0,4.4l-2.1,0.4l0-0.4c0-0.2,0-0.5,0-0.5l0,0c0,0-0.6,1.1-1.9,1.4C81.7,156,80.6,155.5,80.4,154.4
			L80.4,154.4z M82.6,153.5c0,0.3,0.3,0.4,0.6,0.3c0.6-0.1,1.1-0.9,1.1-1.5l0-0.2l-0.2,0C83.7,152.3,82.5,152.7,82.6,153.5
			L82.6,153.5z M89.4,154.8c0,0,0.8,0.3,2,0.1c0.8-0.2,1.6-0.6,1.6-1.7l0-0.2c0-0.1,0-0.3,0-0.3l0,0c-0.4,0.6-0.8,0.9-1.5,1
			c-1.8,0.3-2.9-0.8-3.2-2.4c-0.4-1.9,0.6-4.2,2.9-4.7c0.6-0.1,1.5-0.1,2,0.4l0,0c0,0,0-0.1,0-0.2l0-0.4l2.2-0.4l0,6.7
			c0,2.6-1.8,3.8-3.5,4.1c-1.9,0.4-3-0.2-3-0.2L89.4,154.8L89.4,154.8z M90.6,150.7c0.1,0.7,0.5,1.1,1.3,1c1-0.2,1.4-1.4,1.2-2.3
			c-0.2-0.8-0.7-0.9-1.3-0.8C90.8,148.8,90.4,149.7,90.6,150.7L90.6,150.7z M97,150c-0.4-2.4,0.9-4.5,3.2-5c2-0.4,3.2,0.6,3.5,2.2
			c0.1,0.6,0,1.4,0,1.4l-4.4,0.8c0.1,0.8,0.7,1.1,1.6,1c1-0.2,1.9-1.1,1.9-1.1l0.9,1.6c0,0-1.1,1.1-2.6,1.4
			C98.7,152.8,97.3,151.6,97,150L97,150z M99.4,148l2-0.4c0,0,0-0.2,0-0.2c-0.1-0.4-0.4-0.7-0.9-0.6C99.8,146.9,99.5,147.4,99.4,148
			L99.4,148z M104.8,149.8c-0.4-2.1,2.2-3.2,3.9-3.5l0.1,0c0-0.1,0-0.2,0-0.3c-0.1-0.5-0.4-0.6-1-0.5c-0.9,0.2-1.9,1-1.9,1l-0.8-1.7
			c0,0,1.3-1,2.8-1.3c1.2-0.2,2.8-0.1,3.2,1.7c0,0.2,0.1,0.4,0.1,0.7l0,4.4l-2.1,0.4l0-0.4c0-0.2,0-0.5,0-0.5l0,0
			c0,0-0.6,1.1-1.9,1.4C106.1,151.4,105,151,104.8,149.8L104.8,149.8z M107.1,148.9c0,0.3,0.3,0.4,0.6,0.3c0.6-0.1,1.1-0.9,1.1-1.5
			l0-0.2l-0.2,0C108.1,147.8,106.9,148.1,107.1,148.9L107.1,148.9z M113.1,149.9l0-7.2l2.2-0.4l0,0.4c0,0.4,0,0.7,0,0.7l0,0
			c0.3-0.7,1.1-1.4,2.1-1.6c1.2-0.2,2.3,0.1,2.5,1.6c0,0.2,0.1,0.5,0,0.8l0,4.5l-2.3,0.4l0-4.1c0-0.2,0-0.3,0-0.4
			c-0.1-0.4-0.3-0.6-0.7-0.5c-0.9,0.2-1.5,1.2-1.5,2.3l0,3.2L113.1,149.9L113.1,149.9z M121.5,146.7c-0.4-2.1,2.2-3.2,3.9-3.5l0.1,0
			c0-0.1,0-0.2,0-0.3c-0.1-0.5-0.4-0.6-1-0.5c-0.9,0.2-1.9,1-1.9,1l-0.8-1.7c0,0,1.3-1,2.8-1.3c1.2-0.2,2.8-0.1,3.1,1.7
			c0,0.2,0.1,0.4,0.1,0.7l0,4.4l-2.1,0.4l0-0.4c0-0.2,0-0.5,0-0.5l0,0c0,0-0.6,1.1-1.9,1.4C122.8,148.3,121.7,147.9,121.5,146.7
			L121.5,146.7z M123.7,145.8c0,0.3,0.3,0.4,0.6,0.3c0.6-0.1,1.1-0.9,1.1-1.5l0-0.2l-0.2,0C124.8,144.7,123.6,145,123.7,145.8
			L123.7,145.8z M129.8,146.8l0.1-7.2l2.2-0.4l0,0.4c0,0.4,0,0.7,0,0.7l0,0c0.3-0.7,1.1-1.4,2.1-1.6c1.2-0.2,2.3,0.1,2.5,1.6
			c0,0.2,0,0.5,0,0.8l0,4.5l-2.3,0.4l0-4.1c0-0.2,0-0.3,0-0.4c-0.1-0.4-0.3-0.6-0.7-0.5c-0.9,0.2-1.5,1.2-1.5,2.3l0,3.2L129.8,146.8
			L129.8,146.8z M139,142.9c0-0.2,0-0.4,0-0.5l0-2.4l-0.9,0.2l0-1.9l1-0.2l0-2.1l2.2-0.4l0,2.1l1.5-0.3l0,1.9l-1.5,0.3l0,2
			c0,0.1,0,0.3,0,0.4c0.1,0.6,0.6,0.6,1.1,0.5c0.2,0,0.4-0.1,0.4-0.1l0,2.1c0,0-0.3,0.1-0.6,0.2C140.7,144.9,139.3,144.5,139,142.9
			L139,142.9z M144.1,141.2c-0.4-2.4,0.9-4.5,3.2-5c2-0.4,3.2,0.6,3.5,2.2c0.1,0.6,0,1.4,0,1.4l-4.4,0.8c0.1,0.8,0.7,1.1,1.6,1
			c1-0.2,1.9-1.1,1.9-1.1l0.9,1.6c0,0-1.1,1.1-2.6,1.4C145.8,144,144.4,142.8,144.1,141.2L144.1,141.2z M146.4,139.2l2-0.4
			c0,0,0-0.2,0-0.2c-0.1-0.4-0.4-0.7-0.9-0.6C146.9,138.1,146.5,138.6,146.4,139.2L146.4,139.2z M151.8,141.8l0.9-1.7
			c0,0,0.8,0.5,1.9,0.3c0.4-0.1,0.7-0.2,0.7-0.5c-0.1-0.6-2.9-0.2-3.3-2.3c-0.3-1.3,1-2.5,2.5-2.8c1.7-0.3,2.8,0.3,2.8,0.3l-0.7,1.8
			c0,0-0.7-0.4-1.7-0.2c-0.3,0.1-0.7,0.2-0.7,0.5c0.1,0.5,2.9,0.2,3.3,2.3c0.3,1.3-0.8,2.4-2.5,2.8
			C153.2,142.6,151.8,141.8,151.8,141.8L151.8,141.8z M159,141.4l0-2.3l2.2-0.4l0,2.3L159,141.4z M163.6,140.5l0-5.2l-0.8,0.2l0-1.9
			l0.8-0.2l0-0.3c0-2.3,2-3,3-3.2c0.5-0.1,0.9-0.1,0.9-0.1l0,2c0,0-0.1,0-0.4,0c-0.5,0.1-1.2,0.3-1.2,0.9l0,0.2l1.3-0.2l0,1.9
			l-1.3,0.2l0,5.2L163.6,140.5L163.6,140.5z M168.6,139.6l0-7.2l2.2-0.4l0,1.2c0,0.2,0,0.5,0,0.5l0,0c0.3-1,1.1-2,2.1-2.2
			c0.2,0,0.4,0,0.4,0l0,2.4c0,0-0.2,0-0.5,0c-0.7,0.1-1.9,0.9-1.9,2.9l0,2.4L168.6,139.6L168.6,139.6z"/>
	</g>
</g>
</svg>
